<svg id="Layer_1" enable-background="new 0 0 139.9 67.4" height="81.193726" viewBox="0 0 139.81301 81.193724" width="139.813" xmlns="http://www.w3.org/2000/svg"><path id="path4664" d="m .3565 40.3h139.1v14.7h-139.1z" fill="#c8fd0f"/><path id="path4666" d="m40.8565 2c4.9 0 9 1.6 12.3 4.9s4.9 7.3 4.9 12.1c0 4.7-1.6 8.8-4.9 12.1s-7.3 5-12 5c-4.8 0-8.5-1.3-12.1-4.9l19.9-12-20.4-12s1.3-1.4 3.9-2.9 5.4-2.3 8.4-2.3m.2 3.2c-2.4 0-4.7.6-6.8 1.9-2.1 1.2-3.9 3.1-5 5-1.2 2.1-1.8 4.5-1.8 7.1 0 3.8 1.6 6.9 4 9.7 2.7 2.7 5.8 4 9.6 4 2.5 0 4.8-.6 7-1.8s3.8-2.9 5-5 1.8-4.5 1.8-7c0-2.6-.6-4.9-1.8-7s-2.9-3.7-5.1-5c-2.1-1.3-4.4-1.9-6.9-1.9" fill="#627c8c"/><path id="path4668" d="m62.6565 11.2h3.1v4.3c1.2-1.6 2.6-2.9 4.1-3.7s3.1-1.2 4.9-1.2 3.4.5 4.8 1.4 2.4 2.1 3.1 3.7c.7 1.5 1 3.9 1 7.2v12.3h-3.1v-11.4c0-2.8-.1-4.6-.4-5.5-.4-1.6-1.1-2.8-2.1-3.6s-2.3-1.2-4-1.2c-1.9 0-3.5.6-5 1.8s-2.5 2.8-2.9 4.6c-.3 1.2-.4 3.4-.4 6.5v8.8h-3.1z" fill="#627c8c"/><path id="path4670" d="m99.8565 10.7c3.7 0 6.8 1.3 9.2 4 2.2 2.4 3.3 5.3 3.3 8.6s-1.2 6.3-3.5 8.8-5.3 3.7-9 3.7-6.7-1.2-9-3.7-3.5-5.4-3.5-8.8c0-3.3 1.1-6.2 3.3-8.6 2.4-2.7 5.5-4 9.2-4m0 3c-2.6 0-4.8.9-6.6 2.8s-2.8 4.2-2.8 6.8c0 1.7.4 3.3 1.3 4.8.8 1.5 2 2.6 3.4 3.5 1.4.8 3 1.2 4.7 1.2s3.3-.4 4.7-1.2 2.6-2 3.4-3.5 1.3-3.1 1.3-4.8c0-2.7-.9-5-2.8-6.8-1.9-1.9-4.1-2.8-6.6-2.8" fill="#627c8c"/><path id="path4672" d="m48.4565 19.2-16.8-9.9s-4.3 4.1-4.1 9.8c.1 5.8 4.4 9.9 4.4 9.9z" fill="#c8fd0f"/><path id="path4674" d="m48.4565 19.2-16.8-9.9s-4.3 4.1-4.1 9.8c.1 5.8 4.4 9.9 4.4 9.9z" fill="none" stroke="#c8fd0f" stroke-miterlimit="3.864" stroke-width=".693"/><g id="g4712" fill="#627c8c" transform="translate(-.0435 2)"><path id="path4676" d="m4.8 60.9c0-1.4.4-2.5 1.1-3.2.7-.8 1.7-1.2 2.9-1.2.8 0 1.5.2 2.1.5.6.4 1.1.9 1.4 1.5.3.7.5 1.4.5 2.2s-.2 1.6-.5 2.3-.8 1.2-1.4 1.5-1.3.5-2 .5c-.8 0-1.5-.2-2.1-.6s-1.1-.9-1.4-1.5c-.4-.6-.6-1.3-.6-2m1.1 0c0 1 .3 1.8.8 2.4s1.2.9 2 .9 1.5-.3 2-.9.8-1.4.8-2.5c0-.7-.1-1.3-.3-1.8s-.6-.9-1-1.2-.9-.4-1.5-.4c-.8 0-1.4.3-2 .8-.5.6-.8 1.5-.8 2.7"/><path id="path4678" d="m14.8 64.9v-6h .9v.9c.4-.7 1.1-1 1.9-1 .4 0 .7.1 1 .2s.5.3.7.5.3.5.3.8c0 .2.1.5.1 1v3.7h-1v-3.7c0-.4 0-.7-.1-.9s-.2-.4-.4-.5-.4-.2-.7-.2c-.4 0-.8.1-1.1.4s-.5.8-.5 1.6v3.3h-1.1z"/><path id="path4680" d="m21.6 61.9c0-1.1.3-1.9.9-2.5.5-.4 1.1-.7 1.9-.7s1.5.3 2 .8.8 1.3.8 2.2c0 .8-.1 1.4-.3 1.8s-.6.8-1 1-.9.4-1.4.4c-.8 0-1.5-.3-2-.8-.7-.4-.9-1.2-.9-2.2m1 0c0 .8.2 1.3.5 1.7s.8.6 1.3.6.9-.2 1.3-.6c.3-.4.5-1 .5-1.8 0-.7-.2-1.3-.5-1.7s-.8-.6-1.3-.6-.9.2-1.3.6-.5 1.1-.5 1.8"/><path id="path4682" d="m31.8 64.9 3.2-8.3h1.2l3.4 8.3h-1.2l-1-2.5h-3.5l-.9 2.5zm2.3-3.4h2.9l-.9-2.3c-.3-.7-.5-1.3-.6-1.7-.1.5-.3 1.1-.5 1.6z"/><path id="path4684" d="m44.9 62.7 1 .1c-.1.7-.4 1.2-.8 1.6s-1 .6-1.7.6c-.8 0-1.5-.3-2-.8s-.7-1.3-.7-2.3c0-.6.1-1.2.3-1.7s.5-.8 1-1.1c.4-.2.9-.4 1.4-.4.7 0 1.2.2 1.6.5s.7.8.8 1.4l-1 .2c-.1-.4-.3-.7-.5-.9s-.5-.3-.9-.3c-.5 0-.9.2-1.2.6s-.5.9-.5 1.7.2 1.4.5 1.8.7.5 1.2.5c.4 0 .7-.1 1-.4.3-.2.5-.6.5-1.1"/><path id="path4686" d="m51.5 64.2c-.4.3-.7.5-1.1.7-.3.1-.7.2-1.1.2-.7 0-1.2-.2-1.5-.5-.4-.3-.5-.7-.5-1.2 0-.3.1-.6.2-.8s.3-.4.5-.6c.2-.1.5-.3.7-.3.2-.1.5-.1.9-.2.8-.1 1.4-.2 1.8-.3 0-.1 0-.2 0-.3 0-.4-.1-.7-.3-.9-.3-.2-.6-.3-1.2-.3-.5 0-.8.1-1.1.3-.2.2-.4.5-.5.9l-1-.1c.1-.4.2-.8.4-1 .2-.3.5-.5.9-.6s.8-.2 1.4-.2c.5 0 .9.1 1.3.2.3.1.6.3.7.5.2.2.3.4.3.7 0 .2.1.5.1.9v1.4c0 .9 0 1.5.1 1.8 0 .3.1.5.2.7h-1.1c0-.5-.1-.7-.1-1m-.1-2.3c-.4.2-.9.3-1.7.4-.4.1-.7.1-.9.2s-.3.2-.4.3-.1.3-.1.5c0 .3.1.5.3.7s.5.3.9.3.7-.1 1-.3.5-.4.7-.7c.1-.2.2-.6.2-1z"/><path id="path4688" d="m58.6 64.9v-.8c-.4.6-.9.9-1.7.9-.5 0-.9-.1-1.3-.4s-.7-.6-.9-1.1-.3-1-.3-1.6.1-1.1.3-1.6.5-.9.9-1.1c.4-.3.8-.4 1.3-.4.4 0 .7.1 1 .2.3.2.5.4.7.6v-3h1v8.3zm-3.2-3c0 .8.2 1.3.5 1.7s.7.6 1.1.6.8-.2 1.1-.5c.3-.4.5-.9.5-1.7s-.2-1.4-.5-1.8-.7-.6-1.2-.6-.8.2-1.1.6-.4.9-.4 1.7"/><path id="path4690" d="m66 63 1.1.1c-.2.6-.5 1.1-.9 1.4s-1 .5-1.7.5c-.9 0-1.6-.3-2.1-.8s-.8-1.3-.8-2.3.3-1.8.8-2.3c.5-.6 1.2-.8 2-.8s1.5.3 2 .8.8 1.3.8 2.3v.3h-4.5c0 .7.2 1.2.6 1.5.3.3.8.5 1.3.5.4 0 .7-.1 1-.3.1-.2.3-.5.4-.9m-3.3-1.7h3.3c0-.5-.2-.9-.4-1.1-.3-.4-.7-.6-1.3-.6-.5 0-.9.2-1.2.5-.2.3-.4.7-.4 1.2"/><path id="path4692" d="m69.1 64.9v-6h .9v.8c.2-.3.4-.5.8-.7.3-.2.7-.3 1.1-.3s.8.1 1.1.3.5.4.6.8c.5-.7 1.1-1 1.9-1 .6 0 1.1.2 1.4.5s.5.8.5 1.5v4.1h-1v-3.8c0-.4 0-.7-.1-.9s-.2-.3-.4-.4-.4-.2-.6-.2c-.4 0-.8.1-1.1.4s-.4.7-.4 1.3v3.5h-1v-3.8c0-.5-.1-.8-.2-1-.2-.2-.4-.3-.8-.3-.3 0-.6.1-.8.2-.2.2-.4.4-.5.7s-.2.7-.2 1.3v3.1h-1.2z"/><path id="path4694" d="m80.5 57.8h-1v-1.2h1zm0 7.1h-1v-6h1z"/><path id="path4696" d="m86.8 62.7 1 .1c-.1.7-.4 1.2-.8 1.6s-1 .6-1.7.6c-.8 0-1.5-.3-2-.8s-.7-1.3-.7-2.3c0-.6.1-1.2.3-1.7s.5-.8 1-1.1c.4-.2.9-.4 1.4-.4.7 0 1.2.2 1.6.5s.7.8.8 1.4l-1 .2c-.1-.4-.3-.7-.5-.9s-.5-.3-.9-.3c-.5 0-.9.2-1.3.6-.3.4-.5.9-.5 1.7s.2 1.4.5 1.8.7.5 1.2.5c.4 0 .7-.1 1-.4.3-.2.5-.6.6-1.1"/><path id="path4698" d="m99.4 62 1.1.3c-.2.9-.6 1.6-1.2 2.1s-1.3.7-2.2.7-1.6-.2-2.2-.5c-.6-.4-1-.9-1.3-1.6s-.4-1.4-.4-2.2c0-.9.2-1.6.5-2.3.3-.6.8-1.1 1.4-1.5.6-.3 1.3-.5 2-.5.8 0 1.5.2 2.1.6s1 1 1.2 1.8l-1.1.3c-.2-.6-.5-1-.8-1.3-.4-.3-.8-.4-1.4-.4s-1.2.2-1.6.5-.7.7-.9 1.2-.3 1-.3 1.6c0 .7.1 1.3.3 1.8s.5.9 1 1.2c.4.3.9.4 1.4.4.6 0 1.1-.2 1.6-.5.3-.5.6-1 .8-1.7"/><path id="path4700" d="m102.1 61.9c0-1.1.3-1.9.9-2.5.5-.4 1.1-.7 1.9-.7s1.5.3 2 .8.8 1.3.8 2.2c0 .8-.1 1.4-.3 1.8s-.6.8-1 1-.9.4-1.4.4c-.8 0-1.5-.3-2-.8-.7-.4-.9-1.2-.9-2.2m1 0c0 .8.2 1.3.5 1.7s.8.6 1.3.6.9-.2 1.3-.6c.3-.4.5-1 .5-1.8 0-.7-.2-1.3-.5-1.7s-.8-.6-1.3-.6-.9.2-1.3.6c-.3.5-.5 1.1-.5 1.8"/><path id="path4702" d="m109.6 56.6h1v8.3h-1z"/><path id="path4704" d="m112.9 56.6h1v8.3h-1z"/><path id="path4706" d="m120.4 63 1.1.1c-.2.6-.5 1.1-.9 1.4s-1 .5-1.7.5c-.9 0-1.6-.3-2.1-.8s-.8-1.3-.8-2.3.3-1.8.8-2.3c.5-.6 1.2-.8 2-.8s1.5.3 2 .8.8 1.3.8 2.3v.3h-4.6c0 .7.2 1.2.6 1.5.3.3.8.5 1.3.5.4 0 .7-.1 1-.3.1-.2.3-.5.5-.9m-3.3-1.7h3.3c0-.5-.2-.9-.4-1.1-.3-.4-.7-.6-1.3-.6-.5 0-.9.2-1.2.5-.2.3-.4.7-.4 1.2"/><path id="path4708" d="m123.3 65.4 1 .1c0 .3.2.5.3.7.3.2.6.3 1 .3.5 0 .8-.1 1.1-.3s.4-.5.5-.8c.1-.2.1-.6.1-1.3-.4.5-1 .8-1.7.8-.8 0-1.5-.3-1.9-.9-.5-.6-.7-1.3-.7-2.1 0-.6.1-1.1.3-1.6s.5-.9.9-1.1c.4-.3.9-.4 1.4-.4.7 0 1.3.3 1.8.9v-.7h.9v5.2c0 .9-.1 1.6-.3 2s-.5.7-.9.9-.9.3-1.5.3c-.7 0-1.3-.2-1.7-.5s-.6-.8-.6-1.5m.8-3.6c0 .8.2 1.4.5 1.7.3.4.7.5 1.2.5s.9-.2 1.2-.5c.3-.4.5-.9.5-1.7 0-.7-.2-1.3-.5-1.7s-.7-.6-1.2-.6-.8.2-1.2.5c-.3.6-.5 1.1-.5 1.8"/><path id="path4710" d="m134.8 63 1.1.1c-.2.6-.5 1.1-.9 1.4s-1 .5-1.7.5c-.9 0-1.6-.3-2.1-.8s-.8-1.3-.8-2.3.3-1.8.8-2.3c.5-.6 1.2-.8 2-.8s1.5.3 2 .8.8 1.3.8 2.3v.3h-4.5c0 .7.2 1.2.6 1.5.3.3.8.5 1.3.5.4 0 .7-.1 1-.3 0-.2.2-.5.4-.9m-3.4-1.7h3.3c0-.5-.2-.9-.4-1.1-.3-.4-.7-.6-1.3-.6-.5 0-.9.2-1.2.5-.1.3-.3.7-.4 1.2"/></g><path id="path4714" d="m .3565 40.3h139.1v14.7h-139.1z" fill="none" stroke="#c8fd0f" stroke-miterlimit="3.864" stroke-width=".713"/><g fill="#fff"><path id="path4716" d="m6.4565 52c0 .3-.1.5-.3.7-.2.3-.4.4-.7.4s-.5-.1-.7-.3c-.3-.2-.4-.4-.4-.7v-8c0-.3.1-.5.4-.7.2-.2.5-.3.8-.3s.5.1.7.3.3.5.3.8v7.8z"/><path id="path4718" d="m11.8565 51.6c0 .6-.2 1.1-.6 1.3s-.8.4-1.5.4c-.8 0-1.4-.2-1.8-.6-.1-.1-.2-.3-.2-.6 0-.4.3-.8.8-1.1.3-.2.5-.3.5-.4.2-.2.3-.4.3-.6v-4.3c0-.1-.1-.2-.3-.4-.2-.1-.3-.1-.5-.2-.6-.3-.8-.6-.8-1 0-.2.1-.4.3-.6s.4-.3.7-.3.6.1.8.4c.1.1.2.3.4.7.1.3.3.5.5.6.3.1.6.2.8.4.3.1.5.3.6.6.1.2.1.4.1.7v5z"/><path id="path4720" d="m15.3565 52c0 .3-.1.5-.3.7s-.5.4-.7.4c-.3 0-.5-.1-.7-.3-.3-.2-.4-.4-.4-.7v-8c0-.3.1-.5.4-.7.2-.2.5-.3.8-.3s.5.1.7.3.3.5.3.8v7.8z"/><path id="path4722" d="m24.7565 52c0 .3-.1.5-.3.7s-.5.4-.7.4-.5-.1-.8-.3-.4-.4-.4-.7v-1.9c0-.1-.1-.2-.2-.5-.1-.2-.2-.2-.3-.2h-2.7c-.1 0-.2.1-.3.2s-.1.2-.1.3v1.8s0 0-.1.1l-.1.2c0 .1-.1.2-.2.4-.2.3-.5.5-.9.5-.2 0-.4-.1-.7-.3s-.4-.4-.4-.6v-2.1c0-.3.3-.6.8-.9.2-.1.3-.1.5-.2s.4-.2.4-.3v-.9c0-.1-.1-.2-.3-.4-.2-.1-.3-.1-.5-.2-.6-.2-.8-.5-.8-.8v-2.2c0-.2.1-.4.3-.6s.5-.2.7-.2c.3 0 .6.1.8.4.2.2.3.5.3.9v.4l.2 1v .4c0 .1.1.2.2.3s.2.2.3.2h2.6c.1 0 .3-.1.4-.3s.2-.3.2-.4v-1.9c0-.3.1-.5.4-.7s.5-.3.8-.3.5.1.7.3.3.5.3.8v1.6c0 .4-.2.7-.5.9-.2.1-.5.3-.9.5-.3.2-.5.5-.5.8s.2.6.5.8.6.3.9.5.5.5.5.9v1.6z"/><path id="path4724" d="m40.5565 51.9c0 .3-.1.6-.3.8-.3.2-.5.3-.8.3s-.6-.1-.8-.4-.3-.6-.3-.9v-5.8c0-.1-.1-.2-.2-.3-.2-.1-.3-.2-.4-.2h-1.9c-.3 0-.6.2-.8.5s-.3.6-.3.9v5.4s-.1.1-.1.2c-.2.2-.2.4-.2.4-.4.1-.5.2-.6.2-.3.1-.7.2-1.4.2-1.3 0-1.9-.4-1.9-1.2 0-.2.1-.5.3-.7.1-.1.3-.3.6-.5s.5-.4.6-.5c.2-.2.3-.4.3-.7v-5.4c0-.3.1-.6.4-.9.2-.2.5-.4.8-.5.2-.1.4-.1.6-.1h2.7s.1 0 .4.1c.2 0 .4.1.5.1.2.1.3.1.4.3s.3.4.4.6c.1.3.2.6.3.6.1.1.2.3.5.4.2.1.4.2.6.2.5.2.7.6.7 1.1v5.8z"/><path id="path4726" d="m44.0565 47.5c0 .2-.1.4-.3.6s-.4.3-.7.3-.6-.1-.8-.4c-.2-.2-.4-.5-.4-.8v-2.6c0-.3.1-.6.3-.9s.5-.4.8-.4.5.1.7.2c.2.2.3.4.3.6v3.4z"/><path id="path4728" d="m53.4565 52.1c0 .4-.3.7-.8 1-.4.2-.8.2-1.3.2-.8 0-1.4-.2-1.8-.6-.1-.1-.2-.3-.2-.6s.2-.6.5-.9c.3-.2.6-.4.8-.6.3-.3.5-.6.5-.9v-3.3c0-.7-.6-1.1-1.8-1.1-.5 0-.8 0-1 .1-.3.1-.5.4-.7.7-.1.2-.1.3-.1.3v5.4c0 .3-.1.5-.4.8-.2.3-.5.4-.8.4s-.5-.1-.7-.3-.3-.4-.3-.7v-7.9c0-.3.1-.6.4-.8.2-.2.5-.3.8-.4.2 0 .4-.1.6-.1h4.6c.4 0 .8.1 1.1.3.4.2.7.5.7.9v8.1z"/><path id="path4730" d="m62.6565 44.1c0 .3-.2.6-.5.9-.3.2-.6.4-.9.6-.3.3-.5.6-.5 1v5.5c0 .3-.1.5-.4.7s-.5.3-.8.3-.5-.1-.7-.4-.3-.5-.3-.8v-5.3c0-.3-.1-.5-.3-.7s-.4-.4-.6-.5c0 0-.1 0-.2 0l-.7-.1c-.1 0-.2 0-.2 0-.7-.1-1.3-.3-1.6-.6-.1-.1-.2-.3-.2-.5 0-.6.5-1 1.4-1.2.2 0 .5-.1.6-.1h3.9c.8 0 1.4.2 1.8.6.1.2.2.4.2.6"/><path id="path4732" d="m72.1565 49.3v.1l-.1.2c-.1.3-.1.4-.1.5-.1.2-.1.4-.2.5s-.3.3-.6.4c-.3.2-.6.3-.7.4s-.3.3-.4.4c-.1.2-.2.4-.3.5-.2.4-.5.6-.9.6-.2 0-.5-.1-.7-.3s-.3-.4-.3-.6c0-.4.3-.7.8-1 .2-.1.3-.1.5-.2s.4-.2.4-.3v-4.4c0-.2-.1-.3-.3-.5s-.4-.3-.5-.3h-3.3c-.4 0-.7-.1-1-.3s-.5-.5-.5-.9.2-.6.5-.9c.3-.2.6-.3 1-.3h4.8c.6 0 1.1.2 1.4.5.3.4.5.9.5 1.5zm-6.1 5.3c0 .4-.1.8-.3 1.1-.2.4-.5.5-.9.5-.6 0-1-.4-1.1-1.1 0-.2-.1-.4-.1-.6v-5c0-.4.1-.8.3-1.1.2-.4.5-.5.9-.5s.7.2.9.5.3.6.3 1z"/><path id="path4734" d="m81.5565 52c0 .3-.1.5-.3.7s-.5.4-.7.4-.5-.1-.8-.3-.4-.4-.4-.7v-1.9c0-.1-.1-.2-.2-.5-.1-.2-.2-.2-.3-.2h-2.7c-.1 0-.2.1-.3.2s-.2.2-.2.3v1.8s0 0-.1.1l-.1.2c0 .1-.1.2-.2.4-.2.3-.5.5-.9.5-.2 0-.4-.1-.7-.3s-.4-.4-.4-.6v-2.1c0-.3.3-.6.8-.9.2-.1.3-.1.5-.2s.4-.2.4-.3v-.9c0-.1-.1-.2-.3-.4-.2-.1-.3-.1-.5-.2-.6-.2-.8-.5-.8-.8v-2.2c0-.2.1-.4.3-.6s.5-.2.7-.2c.3 0 .6.1.8.4.2.2.3.5.3.9v.4l.1 1.1v.4c0 .1.1.2.2.3s.2.2.3.2h2.6c.1 0 .3-.1.4-.3s.2-.3.2-.4v-1.9c0-.3.1-.5.4-.7s.5-.3.8-.3.5.1.7.3.3.5.3.8v1.6c0 .4-.2.7-.5.9-.2.1-.5.3-.9.5-.3.2-.5.5-.5.8s.2.6.5.8.6.3.9.5.5.5.5.9v1.5z"/><path id="path4736" d="m91.1565 51.4c0 .4-.1.8-.3 1.1-.2.4-.5.6-.9.6-.3 0-.6-.1-.8-.4-.2-.2-.3-.5-.4-.8 0-.2-.1-.4-.1-.6v-5.5s0-.1-.1-.2-.2-.1-.2-.1h-3.6c-.4 0-.8-.1-1.1-.3-.4-.2-.6-.5-.6-.9 0-.6.4-.9 1.2-1.1.4-.1 1-.1 1.8-.1h.5c.6 0 1 0 1.4.1.3.1.6.3.8.5.1.2.3.6.5 1 .1.2.4.4.9.6.4.2.7.5.8.8 0 .2.1.4.2.7v.1zm-6-.6v.3.3.2c-.1 1-.5 1.4-1.2 1.4-.5 0-.9-.3-1.1-1-.1-.3-.1-.8-.1-1.6 0-.7 0-1.2.1-1.6.2-.7.5-1 1.1-1 .5 0 .9.3 1.1 1 .1.3.1.9.1 1.6z"/><path id="path4738" d="m105.3565 51.4c0 .4-.1.8-.3 1.1-.2.4-.5.6-.9.6-.3 0-.6-.1-.8-.4-.2-.2-.3-.5-.4-.8 0-.2-.1-.4-.1-.6v-5.5s0-.1-.1-.2-.2-.1-.2-.1h-3.6c-.4 0-.8-.1-1.1-.3-.4-.2-.6-.5-.6-.9 0-.6.4-.9 1.2-1.1.4-.1 1-.1 1.8-.1h.5c.6 0 1 0 1.4.1.3.1.6.3.8.5.1.2.3.6.5 1 .1.2.4.4.9.6.4.2.7.5.8.8 0 .2.1.4.2.7v.1zm-6-.6v.3.3.2c-.1 1-.5 1.4-1.2 1.4-.5 0-.9-.3-1.1-1-.1-.2-.1-.7-.1-1.4s0-1.2.1-1.6c.2-.7.5-1 1.1-1 .5 0 .9.3 1.1 1 .1.3.1.9.1 1.6z"/><path id="path4740" d="m108.7565 47.5c0 .2-.1.4-.3.6s-.4.3-.7.3-.6-.1-.8-.4c-.2-.2-.4-.5-.4-.8v-2.6c0-.3.1-.6.3-.9s.5-.4.8-.4.5.1.7.2c.2.2.3.4.3.6v3.4z"/><path id="path4742" d="m116.0565 51.7c0 .3-.1.6-.3.9s-.5.4-.8.4-.6-.1-.8-.4-.3-.6-.3-.9v-5.7c0-.2-.1-.3-.2-.4s-.3-.2-.4-.2h-.5c-.9 0-1.6-.1-2-.3s-.6-.5-.6-1c0-.8.6-1.2 1.9-1.2.7 0 1.2.1 1.5.3.2.1.4.5.6 1 .1.3.3.5.6.6.2.1.5.2.7.3s.4.3.5.5.2.4.2.6v.1 5.4z"/><path id="path4744" d="m125.7565 49.3v.1l-.1.2c-.1.3-.1.4-.1.5-.1.2-.1.4-.2.5s-.3.3-.6.4c-.3.2-.6.3-.7.4s-.3.3-.4.4c-.1.2-.2.4-.3.5-.2.4-.5.6-.9.6-.2 0-.5-.1-.7-.3s-.3-.4-.3-.6c0-.4.3-.7.8-1 .2-.1.3-.1.5-.2s.4-.2.4-.3v-4.4c0-.2-.1-.3-.3-.5s-.4-.3-.5-.3h-3.3c-.4 0-.7-.1-1-.3s-.5-.5-.5-.9.2-.6.5-.9c.3-.2.6-.3 1-.3h4.8c.6 0 1.1.2 1.4.5.3.4.5.9.5 1.5zm-6 5.3c0 .4-.1.8-.3 1.1-.2.4-.5.5-.9.5-.6 0-1-.4-1.1-1.1 0-.2-.1-.4-.1-.6v-5c0-.4.1-.8.3-1.1.2-.4.5-.5.9-.5s.7.2.9.5.3.6.3 1z"/><path id="path4746" d="m135.4565 51.4c0 .4-.1.8-.3 1.1-.2.4-.5.6-.9.6-.3 0-.6-.1-.8-.4-.2-.2-.3-.5-.4-.8 0-.2-.1-.4-.1-.6v-5.5s0-.1-.1-.2-.2-.1-.2-.1h-3.6c-.4 0-.8-.1-1.1-.3-.4-.2-.6-.5-.6-.9 0-.6.4-.9 1.2-1.1.4-.1 1-.1 1.8-.1h.5c.6 0 1 0 1.4.1.3.1.6.3.8.5.1.2.3.6.5 1 .1.2.4.4.9.6.4.2.7.5.8.8 0 .2.1.4.2.7v.1zm-6-.6v.3.3.2c-.1 1-.5 1.4-1.2 1.4-.5 0-.9-.3-1.1-1-.1-.3-.1-.8-.1-1.6 0-.7 0-1.2.1-1.6.2-.7.5-1 1.1-1 .5 0 .9.3 1.1 1 .1.3.1.9.1 1.6z"/></g><g id="text5300" fill="#627c8c"><path id="path5325" d="m130.32013 74.048543h1.5677q.0592.03646.19141.483073.13672.442058.13672.638021.14128-.496745.61068-.838541.4694-.346355.97526-.346355 2.02343 0 2.02343 2.424479v2.74349h-2.625v-1.080078h1.11654v-1.663412q0-.751953-.12305-1.034505-.11849-.287109-.49674-.287109-.14128 0-.25977.05925-.11849.05469-.20963.136718-.0866.08203-.16862.23698-.0775.15039-.13216.282552-.0501.132161-.10482.350911-.0547.214193-.0866.364583-.0319.150391-.082.401042l-.44206 2.233073h-1.5039l.41927-2.210286q.0638-.341797.0729-.610677 0-.510417-.16406-.970704-.16406-.464843-.71549-1.3125z"/><path id="path5327" d="m127.63474 74.048543v2.957683l-1.50846.615234v-3.572917z"/><path id="path5329" d="m121.49037 78.068075v-2.032552q0-.60612-.18685-.751954-.18685-.15039-.48308-.15039h-.69726v-1.084636h.69726q1.3125 0 1.74545.519532.43294.519531.43294 1.367187v3.217448h-2.98047v-1.084635z"/><path id="path5331" d="m113.9788 75.862345v3.290365h-1.5039v-2.670573zm3.1263.697266v2.593099h-1.5039v-2.748047q0-.742838-.19141-1.007161-.18685-.264323-.73372-.264323h-2.28776v-1.084636h2.27864q.68815 0 1.14844.136719.46029.136719.7474.446615.29166.305338.41471.770182.1276.464844.1276 1.157552z"/><path id="path5333" d="m105.74264 79.15271 1.66341-4.019531h-2.77539v-2.620443h1.50846v1.535807l3.00781.0046v.729166l-1.8457 4.370443z"/><path id="path5335" d="m88.686307 75.862345v3.290365h-1.503906v-2.670573zm3.126302.697266v2.593099h-1.503906v-2.748047q0-.742838-.191406-1.007161-.186849-.264323-.733724-.264323h-2.287761v-1.084636h2.278646q.688151 0 1.148438.136719.460286.136719.747395.446615.291667.305338.414714.770182.127604.464844.127604 1.157552z"/><path id="path5337" d="m81.552999 78.072632-2.748047-4.024089h1.695312l1.421875 2.105469q.341797-.113932.341797-.75651v-1.348959h1.499349v1.007162q0 .70638-.277995 1.171224-.246094.414713-.519531.551432-.31901.159505-.442057.154948l1.09375 1.636068v.583333h-4.616537v-1.080078z"/><path id="path5339" d="m76.215263 74.048543v2.957683l-1.508463.615234v-3.572917z"/><path id="path5341" d="m71.574788 74.048543v5.104167h-1.508463v-5.104167z"/><path id="path5343" d="m65.202555 78.068075v-2.032552q0-.60612-.186849-.751954-.186849-.15039-.483073-.15039h-.697265v-1.084636h.697265q1.3125 0 1.745443.519532.432943.519531.432943 1.367187v3.217448h-2.980469v-1.084635z"/><path id="path5345" d="m60.817296 74.048543v5.104167h-1.508463v-5.104167z"/><path id="path5347" d="m55.948964 76.40922v2.74349h-1.508463v-2.748047q0-.802083-.227865-1.04362-.209635-.227864-.642578-.227864h-.642578v2.105469q0 1.152994-.405599 1.576822-.360026.378256-1.04362.378256-.683594 0-.966146-.0957v-1.02539q.446615.05925.501302.05925.227865 0 .314453-.177735.09115-.182291.09115-.715494v-2.105469h-.888672v-1.084636h3.039714q1.604167 0 2.082682.884115.296224.546875.296224 1.476562z"/><path id="path5349" d="m34.877662 75.862345v3.290365h-1.503906v-2.670573zm3.126302.697266v2.593099h-1.503906v-2.748047q0-.742838-.191407-1.007161-.186849-.264323-.733724-.264323h-2.28776v-1.084636h2.278646q.688151 0 1.148437.136719.460287.136719.747396.446615.291667.305338.414714.770182.127604.464844.127604 1.157552z"/><path id="path5351" d="m30.378468 75.133179h-.811198v4.019531h-1.508464v-4.019531h-2.365234v-1.084636h4.684896z"/><path id="path5353" d="m22.780317 76.40922v2.74349h-1.508463v-2.748047q0-.802083-.227865-1.04362-.209635-.227864-.642578-.227864h-.642578v2.105469q0 1.152994-.405599 1.576822-.360026.378256-1.04362.378256-.683593 0-.966145-.0957v-1.02539q.446614.05925.501302.05925.227864 0 .314453-.177735.09115-.182291.09115-.715494v-2.105469h-.888672v-1.084636h3.039713q1.604167 0 2.082682.884115.296224.546875.296224 1.476562z"/><path id="path5355" d="m14.967973 74.048543v2.957683l-1.508464.615234v-3.572917z"/><path id="path5357" d="m10.327505 76.40922v2.74349h-1.508464v-2.748047q0-.802083-.2278646-1.04362-.2096354-.227864-.6425781-.227864h-.6425781v2.105469q0 1.152994-.4055989 1.576822-.360026.378256-1.0436198.378256-.6835937 0-.9661458-.0957v-1.02539q.4466146.05925.5013021.05925.2278646 0 .3144531-.177735.091146-.182291.091146-.715494v-2.105478h-.888672v-1.084636h3.0397134q1.6041666 0 2.0826827.884115.296224.546875.296224 1.476562z"/></g><text id="text5304" x="73.175186" y="-75.729897"><tspan id="tspan5302" x="73.175186" y="-67.472084"/></text></svg>