<?xml version="1.0" encoding="UTF-8" standalone="no"?>
<svg
   xmlns:dc="http://purl.org/dc/elements/1.1/"
   xmlns:cc="http://creativecommons.org/ns#"
   xmlns:rdf="http://www.w3.org/1999/02/22-rdf-syntax-ns#"
   xmlns:svg="http://www.w3.org/2000/svg"
   xmlns="http://www.w3.org/2000/svg"
   xmlns:sodipodi="http://sodipodi.sourceforge.net/DTD/sodipodi-0.dtd"
   xmlns:inkscape="http://www.inkscape.org/namespaces/inkscape"
   id="Layer_1"
   enable-background="new 0 0 139.9 67.4"
   viewBox="0 0 139.81301 81.193724"
   version="1.1"
   sodipodi:docname="logo_leumi.svg"
   width="139.813"
   height="81.193726"
   inkscape:version="0.92.3 (2405546, 2018-03-11)">
  <metadata
     id="metadata4753">
    <rdf:RDF>
      <cc:Work
         rdf:about="">
        <dc:format>image/svg+xml</dc:format>
        <dc:type
           rdf:resource="http://purl.org/dc/dcmitype/StillImage" />
        <dc:title></dc:title>
      </cc:Work>
    </rdf:RDF>
  </metadata>
  <defs
     id="defs4751" />
  <sodipodi:namedview
     pagecolor="#ffffff"
     bordercolor="#666666"
     borderopacity="1"
     objecttolerance="10"
     gridtolerance="10"
     guidetolerance="10"
     inkscape:pageopacity="0"
     inkscape:pageshadow="2"
     inkscape:window-width="1920"
     inkscape:window-height="1016"
     id="namedview4749"
     showgrid="false"
     fit-margin-top="2"
     fit-margin-left="0"
     fit-margin-right="0"
     fit-margin-bottom="2"
     inkscape:zoom="2.8284271"
     inkscape:cx="-56.257599"
     inkscape:cy="24.901498"
     inkscape:window-x="0"
     inkscape:window-y="28"
     inkscape:window-maximized="1"
     inkscape:current-layer="Layer_1" />
  <path
     d="m 0.3565,40.3 h 139.1 V 55 h -139.1 z"
     id="path4664"
     inkscape:connector-curvature="0"
     style="fill:#c8fd0f;fill-opacity:1" />
  <path
     d="m 40.8565,2 c 4.9,0 9,1.6 12.3,4.9 3.3,3.3 4.9,7.3 4.9,12.1 0,4.7 -1.6,8.8 -4.9,12.1 -3.3,3.3 -7.3,5 -12,5 -4.8,0 -8.5,-1.3 -12.1,-4.9 l 19.9,-12 -20.4,-12 c 0,0 1.3,-1.4 3.9,-2.9 2.6,-1.5 5.4,-2.3 8.4,-2.3 m 0.2,3.2 c -2.4,0 -4.7,0.6 -6.8,1.9 -2.1,1.2 -3.9,3.1 -5,5 -1.2,2.1 -1.8,4.5 -1.8,7.1 0,3.8 1.6,6.9 4,9.7 2.7,2.7 5.8,4 9.6,4 2.5,0 4.8,-0.6 7,-1.8 2.2,-1.2 3.8,-2.9 5,-5 1.2,-2.1 1.8,-4.5 1.8,-7 0,-2.6 -0.6,-4.9 -1.8,-7 -1.2,-2.1 -2.9,-3.7 -5.1,-5 -2.1,-1.3 -4.4,-1.9 -6.9,-1.9"
     id="path4666"
     inkscape:connector-curvature="0"
     style="fill:#627c8c;fill-opacity:1" />
  <path
     d="m 62.6565,11.2 h 3.1 v 4.3 c 1.2,-1.6 2.6,-2.9 4.1,-3.7 1.5,-0.8 3.1,-1.2 4.9,-1.2 1.8,0 3.4,0.5 4.8,1.4 1.4,0.9 2.4,2.1 3.1,3.7 0.7,1.5 1,3.9 1,7.2 v 12.3 h -3.1 V 23.8 c 0,-2.8 -0.1,-4.6 -0.4,-5.5 -0.4,-1.6 -1.1,-2.8 -2.1,-3.6 -1,-0.8 -2.3,-1.2 -4,-1.2 -1.9,0 -3.5,0.6 -5,1.8 -1.5,1.2 -2.5,2.8 -2.9,4.6 -0.3,1.2 -0.4,3.4 -0.4,6.5 v 8.8 h -3.1 z"
     id="path4668"
     inkscape:connector-curvature="0"
     style="fill:#627c8c;fill-opacity:1" />
  <path
     d="m 99.8565,10.7 c 3.7,0 6.8,1.3 9.2,4 2.2,2.4 3.3,5.3 3.3,8.6 0,3.3 -1.2,6.3 -3.5,8.8 -2.3,2.5 -5.3,3.7 -9,3.7 -3.7,0 -6.7,-1.2 -9,-3.7 -2.3,-2.5 -3.5,-5.4 -3.5,-8.8 0,-3.3 1.1,-6.2 3.3,-8.6 2.4,-2.7 5.5,-4 9.2,-4 m 0,3 c -2.6,0 -4.8,0.9 -6.6,2.8 -1.8,1.9 -2.8,4.2 -2.8,6.8 0,1.7 0.4,3.3 1.3,4.8 0.8,1.5 2,2.6 3.4,3.5 1.4,0.8 3,1.2 4.7,1.2 1.7,0 3.3,-0.4 4.7,-1.2 1.4,-0.8 2.6,-2 3.4,-3.5 0.8,-1.5 1.3,-3.1 1.3,-4.8 0,-2.7 -0.9,-5 -2.8,-6.8 -1.9,-1.9 -4.1,-2.8 -6.6,-2.8"
     id="path4670"
     inkscape:connector-curvature="0"
     style="fill:#627c8c;fill-opacity:1" />
  <path
     d="m 48.4565,19.2 -16.8,-9.9 c 0,0 -4.3,4.1 -4.1,9.8 0.1,5.8 4.4,9.9 4.4,9.9 z"
     id="path4672"
     inkscape:connector-curvature="0"
     style="fill:#c8fd0f;fill-opacity:1;stroke:none" />
  <path
     d="m 48.4565,19.2 -16.8,-9.9 c 0,0 -4.3,4.1 -4.1,9.8 0.1,5.8 4.4,9.9 4.4,9.9 z"
     stroke-miterlimit="3.864"
     id="path4674"
     inkscape:connector-curvature="0"
     style="fill:none;stroke:#c8fd0f;stroke-width:0.69300002;stroke-miterlimit:3.86400008;stroke-opacity:1" />
  <g
     id="g4712"
     style="fill:#627c8c;fill-opacity:1"
     transform="translate(-0.0435,2)">
    <path
       d="m 4.8,60.9 c 0,-1.4 0.4,-2.5 1.1,-3.2 0.7,-0.8 1.7,-1.2 2.9,-1.2 0.8,0 1.5,0.2 2.1,0.5 0.6,0.4 1.1,0.9 1.4,1.5 0.3,0.7 0.5,1.4 0.5,2.2 0,0.8 -0.2,1.6 -0.5,2.3 -0.3,0.7 -0.8,1.2 -1.4,1.5 C 10.3,64.8 9.6,65 8.9,65 8.1,65 7.4,64.8 6.8,64.4 6.2,64 5.7,63.5 5.4,62.9 5,62.3 4.8,61.6 4.8,60.9 m 1.1,0 c 0,1 0.3,1.8 0.8,2.4 0.5,0.6 1.2,0.9 2,0.9 0.8,0 1.5,-0.3 2,-0.9 0.5,-0.6 0.8,-1.4 0.8,-2.5 0,-0.7 -0.1,-1.3 -0.3,-1.8 -0.2,-0.5 -0.6,-0.9 -1,-1.2 -0.4,-0.3 -0.9,-0.4 -1.5,-0.4 -0.8,0 -1.4,0.3 -2,0.8 -0.5,0.6 -0.8,1.5 -0.8,2.7"
       id="path4676"
       inkscape:connector-curvature="0"
       style="fill:#627c8c;fill-opacity:1" />
    <path
       d="m 14.8,64.9 v -6 h 0.9 v 0.9 c 0.4,-0.7 1.1,-1 1.9,-1 0.4,0 0.7,0.1 1,0.2 0.3,0.1 0.5,0.3 0.7,0.5 0.2,0.2 0.3,0.5 0.3,0.8 0,0.2 0.1,0.5 0.1,1 V 65 h -1 v -3.7 c 0,-0.4 0,-0.7 -0.1,-0.9 -0.1,-0.2 -0.2,-0.4 -0.4,-0.5 -0.2,-0.1 -0.4,-0.2 -0.7,-0.2 -0.4,0 -0.8,0.1 -1.1,0.4 -0.3,0.3 -0.5,0.8 -0.5,1.6 V 65 h -1.1 z"
       id="path4678"
       inkscape:connector-curvature="0"
       style="fill:#627c8c;fill-opacity:1" />
    <path
       d="m 21.6,61.9 c 0,-1.1 0.3,-1.9 0.9,-2.5 0.5,-0.4 1.1,-0.7 1.9,-0.7 0.8,0 1.5,0.3 2,0.8 0.5,0.5 0.8,1.3 0.8,2.2 0,0.8 -0.1,1.4 -0.3,1.8 -0.2,0.4 -0.6,0.8 -1,1 -0.4,0.2 -0.9,0.4 -1.4,0.4 -0.8,0 -1.5,-0.3 -2,-0.8 -0.7,-0.4 -0.9,-1.2 -0.9,-2.2 m 1,0 c 0,0.8 0.2,1.3 0.5,1.7 0.3,0.4 0.8,0.6 1.3,0.6 0.5,0 0.9,-0.2 1.3,-0.6 0.3,-0.4 0.5,-1 0.5,-1.8 0,-0.7 -0.2,-1.3 -0.5,-1.7 -0.3,-0.4 -0.8,-0.6 -1.3,-0.6 -0.5,0 -0.9,0.2 -1.3,0.6 -0.4,0.4 -0.5,1.1 -0.5,1.8"
       id="path4680"
       inkscape:connector-curvature="0"
       style="fill:#627c8c;fill-opacity:1" />
    <path
       d="M 31.8,64.9 35,56.6 h 1.2 l 3.4,8.3 h -1.2 l -1,-2.5 H 33.9 L 33,64.9 Z m 2.3,-3.4 H 37 L 36.1,59.2 C 35.8,58.5 35.6,57.9 35.5,57.5 35.4,58 35.2,58.6 35,59.1 Z"
       id="path4682"
       inkscape:connector-curvature="0"
       style="fill:#627c8c;fill-opacity:1" />
    <path
       d="m 44.9,62.7 1,0.1 c -0.1,0.7 -0.4,1.2 -0.8,1.6 -0.4,0.4 -1,0.6 -1.7,0.6 -0.8,0 -1.5,-0.3 -2,-0.8 -0.5,-0.5 -0.7,-1.3 -0.7,-2.3 0,-0.6 0.1,-1.2 0.3,-1.7 0.2,-0.5 0.5,-0.8 1,-1.1 0.4,-0.2 0.9,-0.4 1.4,-0.4 0.7,0 1.2,0.2 1.6,0.5 0.4,0.3 0.7,0.8 0.8,1.4 l -1,0.2 c -0.1,-0.4 -0.3,-0.7 -0.5,-0.9 -0.2,-0.2 -0.5,-0.3 -0.9,-0.3 -0.5,0 -0.9,0.2 -1.2,0.6 -0.3,0.4 -0.5,0.9 -0.5,1.7 0,0.8 0.2,1.4 0.5,1.8 0.3,0.4 0.7,0.5 1.2,0.5 0.4,0 0.7,-0.1 1,-0.4 0.3,-0.2 0.5,-0.6 0.5,-1.1"
       id="path4684"
       inkscape:connector-curvature="0"
       style="fill:#627c8c;fill-opacity:1" />
    <path
       d="m 51.5,64.2 c -0.4,0.3 -0.7,0.5 -1.1,0.7 -0.3,0.1 -0.7,0.2 -1.1,0.2 -0.7,0 -1.2,-0.2 -1.5,-0.5 -0.4,-0.3 -0.5,-0.7 -0.5,-1.2 0,-0.3 0.1,-0.6 0.2,-0.8 0.1,-0.2 0.3,-0.4 0.5,-0.6 0.2,-0.1 0.5,-0.3 0.7,-0.3 0.2,-0.1 0.5,-0.1 0.9,-0.2 0.8,-0.1 1.4,-0.2 1.8,-0.3 0,-0.1 0,-0.2 0,-0.3 0,-0.4 -0.1,-0.7 -0.3,-0.9 -0.3,-0.2 -0.6,-0.3 -1.2,-0.3 -0.5,0 -0.8,0.1 -1.1,0.3 -0.2,0.2 -0.4,0.5 -0.5,0.9 l -1,-0.1 c 0.1,-0.4 0.2,-0.8 0.4,-1 0.2,-0.3 0.5,-0.5 0.9,-0.6 C 49,59.1 49.4,59 50,59 c 0.5,0 0.9,0.1 1.3,0.2 0.3,0.1 0.6,0.3 0.7,0.5 0.2,0.2 0.3,0.4 0.3,0.7 0,0.2 0.1,0.5 0.1,0.9 v 1.4 c 0,0.9 0,1.5 0.1,1.8 0,0.3 0.1,0.5 0.2,0.7 h -1.1 c 0,-0.5 -0.1,-0.7 -0.1,-1 m -0.1,-2.3 c -0.4,0.2 -0.9,0.3 -1.7,0.4 -0.4,0.1 -0.7,0.1 -0.9,0.2 -0.2,0.1 -0.3,0.2 -0.4,0.3 -0.1,0.1 -0.1,0.3 -0.1,0.5 0,0.3 0.1,0.5 0.3,0.7 0.2,0.2 0.5,0.3 0.9,0.3 0.4,0 0.7,-0.1 1,-0.3 0.3,-0.2 0.5,-0.4 0.7,-0.7 0.1,-0.2 0.2,-0.6 0.2,-1 z"
       id="path4686"
       inkscape:connector-curvature="0"
       style="fill:#627c8c;fill-opacity:1" />
    <path
       d="M 58.6,64.9 V 64.1 C 58.2,64.7 57.7,65 56.9,65 56.4,65 56,64.9 55.6,64.6 55.2,64.3 54.9,64 54.7,63.5 c -0.2,-0.5 -0.3,-1 -0.3,-1.6 0,-0.6 0.1,-1.1 0.3,-1.6 0.2,-0.5 0.5,-0.9 0.9,-1.1 0.4,-0.3 0.8,-0.4 1.3,-0.4 0.4,0 0.7,0.1 1,0.2 0.3,0.2 0.5,0.4 0.7,0.6 v -3 h 1 v 8.3 z m -3.2,-3 c 0,0.8 0.2,1.3 0.5,1.7 0.3,0.4 0.7,0.6 1.1,0.6 0.4,0 0.8,-0.2 1.1,-0.5 0.3,-0.4 0.5,-0.9 0.5,-1.7 0,-0.8 -0.2,-1.4 -0.5,-1.8 -0.3,-0.4 -0.7,-0.6 -1.2,-0.6 -0.5,0 -0.8,0.2 -1.1,0.6 -0.3,0.4 -0.4,0.9 -0.4,1.7"
       id="path4688"
       inkscape:connector-curvature="0"
       style="fill:#627c8c;fill-opacity:1" />
    <path
       d="m 66,63 1.1,0.1 c -0.2,0.6 -0.5,1.1 -0.9,1.4 -0.4,0.3 -1,0.5 -1.7,0.5 -0.9,0 -1.6,-0.3 -2.1,-0.8 -0.5,-0.5 -0.8,-1.3 -0.8,-2.3 0,-1 0.3,-1.8 0.8,-2.3 0.5,-0.6 1.2,-0.8 2,-0.8 0.8,0 1.5,0.3 2,0.8 0.5,0.5 0.8,1.3 0.8,2.3 v 0.3 h -4.5 c 0,0.7 0.2,1.2 0.6,1.5 0.3,0.3 0.8,0.5 1.3,0.5 0.4,0 0.7,-0.1 1,-0.3 0.1,-0.2 0.3,-0.5 0.4,-0.9 M 62.7,61.3 H 66 c 0,-0.5 -0.2,-0.9 -0.4,-1.1 -0.3,-0.4 -0.7,-0.6 -1.3,-0.6 -0.5,0 -0.9,0.2 -1.2,0.5 -0.2,0.3 -0.4,0.7 -0.4,1.2"
       id="path4690"
       inkscape:connector-curvature="0"
       style="fill:#627c8c;fill-opacity:1" />
    <path
       d="m 69.1,64.9 v -6 H 70 v 0.8 c 0.2,-0.3 0.4,-0.5 0.8,-0.7 0.3,-0.2 0.7,-0.3 1.1,-0.3 0.4,0 0.8,0.1 1.1,0.3 0.3,0.2 0.5,0.4 0.6,0.8 0.5,-0.7 1.1,-1 1.9,-1 0.6,0 1.1,0.2 1.4,0.5 0.3,0.3 0.5,0.8 0.5,1.5 v 4.1 h -1 v -3.8 c 0,-0.4 0,-0.7 -0.1,-0.9 -0.1,-0.2 -0.2,-0.3 -0.4,-0.4 -0.2,-0.1 -0.4,-0.2 -0.6,-0.2 -0.4,0 -0.8,0.1 -1.1,0.4 -0.3,0.3 -0.4,0.7 -0.4,1.3 v 3.5 h -1 V 61 c 0,-0.5 -0.1,-0.8 -0.2,-1 -0.2,-0.2 -0.4,-0.3 -0.8,-0.3 -0.3,0 -0.6,0.1 -0.8,0.2 -0.2,0.2 -0.4,0.4 -0.5,0.7 -0.1,0.3 -0.2,0.7 -0.2,1.3 V 65 h -1.2 z"
       id="path4692"
       inkscape:connector-curvature="0"
       style="fill:#627c8c;fill-opacity:1" />
    <path
       d="m 80.5,57.8 h -1 v -1.2 h 1 z m 0,7.1 h -1 v -6 h 1 z"
       id="path4694"
       inkscape:connector-curvature="0"
       style="fill:#627c8c;fill-opacity:1" />
    <path
       d="m 86.8,62.7 1,0.1 c -0.1,0.7 -0.4,1.2 -0.8,1.6 -0.4,0.4 -1,0.6 -1.7,0.6 -0.8,0 -1.5,-0.3 -2,-0.8 -0.5,-0.5 -0.7,-1.3 -0.7,-2.3 0,-0.6 0.1,-1.2 0.3,-1.7 0.2,-0.5 0.5,-0.8 1,-1.1 0.4,-0.2 0.9,-0.4 1.4,-0.4 0.7,0 1.2,0.2 1.6,0.5 0.4,0.3 0.7,0.8 0.8,1.4 l -1,0.2 c -0.1,-0.4 -0.3,-0.7 -0.5,-0.9 -0.2,-0.2 -0.5,-0.3 -0.9,-0.3 -0.5,0 -0.9,0.2 -1.3,0.6 -0.3,0.4 -0.5,0.9 -0.5,1.7 0,0.8 0.2,1.4 0.5,1.8 0.3,0.4 0.7,0.5 1.2,0.5 0.4,0 0.7,-0.1 1,-0.4 0.3,-0.2 0.5,-0.6 0.6,-1.1"
       id="path4696"
       inkscape:connector-curvature="0"
       style="fill:#627c8c;fill-opacity:1" />
    <path
       d="m 99.4,62 1.1,0.3 c -0.2,0.9 -0.6,1.6 -1.2,2.1 -0.6,0.5 -1.3,0.7 -2.2,0.7 -0.9,0 -1.6,-0.2 -2.2,-0.5 -0.6,-0.4 -1,-0.9 -1.3,-1.6 -0.3,-0.7 -0.4,-1.4 -0.4,-2.2 0,-0.9 0.2,-1.6 0.5,-2.3 0.3,-0.6 0.8,-1.1 1.4,-1.5 0.6,-0.3 1.3,-0.5 2,-0.5 0.8,0 1.5,0.2 2.1,0.6 0.6,0.4 1,1 1.2,1.8 l -1.1,0.3 c -0.2,-0.6 -0.5,-1 -0.8,-1.3 -0.4,-0.3 -0.8,-0.4 -1.4,-0.4 -0.6,0 -1.2,0.2 -1.6,0.5 -0.4,0.3 -0.7,0.7 -0.9,1.2 -0.2,0.5 -0.3,1 -0.3,1.6 0,0.7 0.1,1.3 0.3,1.8 0.2,0.5 0.5,0.9 1,1.2 0.4,0.3 0.9,0.4 1.4,0.4 0.6,0 1.1,-0.2 1.6,-0.5 0.3,-0.5 0.6,-1 0.8,-1.7"
       id="path4698"
       inkscape:connector-curvature="0"
       style="fill:#627c8c;fill-opacity:1" />
    <path
       d="m 102.1,61.9 c 0,-1.1 0.3,-1.9 0.9,-2.5 0.5,-0.4 1.1,-0.7 1.9,-0.7 0.8,0 1.5,0.3 2,0.8 0.5,0.5 0.8,1.3 0.8,2.2 0,0.8 -0.1,1.4 -0.3,1.8 -0.2,0.4 -0.6,0.8 -1,1 -0.4,0.2 -0.9,0.4 -1.4,0.4 -0.8,0 -1.5,-0.3 -2,-0.8 -0.7,-0.4 -0.9,-1.2 -0.9,-2.2 m 1,0 c 0,0.8 0.2,1.3 0.5,1.7 0.3,0.4 0.8,0.6 1.3,0.6 0.5,0 0.9,-0.2 1.3,-0.6 0.3,-0.4 0.5,-1 0.5,-1.8 0,-0.7 -0.2,-1.3 -0.5,-1.7 -0.3,-0.4 -0.8,-0.6 -1.3,-0.6 -0.5,0 -0.9,0.2 -1.3,0.6 -0.3,0.5 -0.5,1.1 -0.5,1.8"
       id="path4700"
       inkscape:connector-curvature="0"
       style="fill:#627c8c;fill-opacity:1" />
    <path
       d="m 109.6,56.6 h 1 v 8.3 h -1 z"
       id="path4702"
       inkscape:connector-curvature="0"
       style="fill:#627c8c;fill-opacity:1" />
    <path
       d="m 112.9,56.6 h 1 v 8.3 h -1 z"
       id="path4704"
       inkscape:connector-curvature="0"
       style="fill:#627c8c;fill-opacity:1" />
    <path
       d="m 120.4,63 1.1,0.1 c -0.2,0.6 -0.5,1.1 -0.9,1.4 -0.4,0.3 -1,0.5 -1.7,0.5 -0.9,0 -1.6,-0.3 -2.1,-0.8 -0.5,-0.5 -0.8,-1.3 -0.8,-2.3 0,-1 0.3,-1.8 0.8,-2.3 0.5,-0.6 1.2,-0.8 2,-0.8 0.8,0 1.5,0.3 2,0.8 0.5,0.5 0.8,1.3 0.8,2.3 v 0.3 H 117 c 0,0.7 0.2,1.2 0.6,1.5 0.3,0.3 0.8,0.5 1.3,0.5 0.4,0 0.7,-0.1 1,-0.3 0.1,-0.2 0.3,-0.5 0.5,-0.9 m -3.3,-1.7 h 3.3 c 0,-0.5 -0.2,-0.9 -0.4,-1.1 -0.3,-0.4 -0.7,-0.6 -1.3,-0.6 -0.5,0 -0.9,0.2 -1.2,0.5 -0.2,0.3 -0.4,0.7 -0.4,1.2"
       id="path4706"
       inkscape:connector-curvature="0"
       style="fill:#627c8c;fill-opacity:1" />
    <path
       d="m 123.3,65.4 1,0.1 c 0,0.3 0.2,0.5 0.3,0.7 0.3,0.2 0.6,0.3 1,0.3 0.5,0 0.8,-0.1 1.1,-0.3 0.3,-0.2 0.4,-0.5 0.5,-0.8 0.1,-0.2 0.1,-0.6 0.1,-1.3 -0.4,0.5 -1,0.8 -1.7,0.8 -0.8,0 -1.5,-0.3 -1.9,-0.9 -0.5,-0.6 -0.7,-1.3 -0.7,-2.1 0,-0.6 0.1,-1.1 0.3,-1.6 0.2,-0.5 0.5,-0.9 0.9,-1.1 0.4,-0.3 0.9,-0.4 1.4,-0.4 0.7,0 1.3,0.3 1.8,0.9 V 59 h 0.9 v 5.2 c 0,0.9 -0.1,1.6 -0.3,2 -0.2,0.4 -0.5,0.7 -0.9,0.9 -0.4,0.2 -0.9,0.3 -1.5,0.3 -0.7,0 -1.3,-0.2 -1.7,-0.5 -0.4,-0.3 -0.6,-0.8 -0.6,-1.5 m 0.8,-3.6 c 0,0.8 0.2,1.4 0.5,1.7 0.3,0.4 0.7,0.5 1.2,0.5 0.5,0 0.9,-0.2 1.2,-0.5 0.3,-0.4 0.5,-0.9 0.5,-1.7 0,-0.7 -0.2,-1.3 -0.5,-1.7 -0.3,-0.4 -0.7,-0.6 -1.2,-0.6 -0.5,0 -0.8,0.2 -1.2,0.5 -0.3,0.6 -0.5,1.1 -0.5,1.8"
       id="path4708"
       inkscape:connector-curvature="0"
       style="fill:#627c8c;fill-opacity:1" />
    <path
       d="m 134.8,63 1.1,0.1 c -0.2,0.6 -0.5,1.1 -0.9,1.4 -0.4,0.3 -1,0.5 -1.7,0.5 -0.9,0 -1.6,-0.3 -2.1,-0.8 -0.5,-0.5 -0.8,-1.3 -0.8,-2.3 0,-1 0.3,-1.8 0.8,-2.3 0.5,-0.6 1.2,-0.8 2,-0.8 0.8,0 1.5,0.3 2,0.8 0.5,0.5 0.8,1.3 0.8,2.3 v 0.3 h -4.5 c 0,0.7 0.2,1.2 0.6,1.5 0.3,0.3 0.8,0.5 1.3,0.5 0.4,0 0.7,-0.1 1,-0.3 0,-0.2 0.2,-0.5 0.4,-0.9 m -3.4,-1.7 h 3.3 c 0,-0.5 -0.2,-0.9 -0.4,-1.1 -0.3,-0.4 -0.7,-0.6 -1.3,-0.6 -0.5,0 -0.9,0.2 -1.2,0.5 -0.1,0.3 -0.3,0.7 -0.4,1.2"
       id="path4710"
       inkscape:connector-curvature="0"
       style="fill:#627c8c;fill-opacity:1" />
  </g>
  <path
     d="m 0.3565,40.3 h 139.1 V 55 h -139.1 z"
     stroke-miterlimit="3.864"
     id="path4714"
     inkscape:connector-curvature="0"
     style="fill:none;stroke:#c8fd0f;stroke-width:0.713;stroke-miterlimit:3.86400008;stroke-opacity:1" />
  <path
     d="m 6.4565,52 c 0,0.3 -0.1,0.5 -0.3,0.7 -0.2,0.3 -0.4,0.4 -0.7,0.4 -0.3,0 -0.5,-0.1 -0.7,-0.3 -0.3,-0.2 -0.4,-0.4 -0.4,-0.7 v -8 c 0,-0.3 0.1,-0.5 0.4,-0.7 0.2,-0.2 0.5,-0.3 0.8,-0.3 0.3,0 0.5,0.1 0.7,0.3 0.2,0.2 0.3,0.5 0.3,0.8 V 52 Z"
     id="path4716"
     inkscape:connector-curvature="0"
     style="fill:#ffffff" />
  <path
     d="m 11.8565,51.6 c 0,0.6 -0.2,1.1 -0.6,1.3 -0.4,0.2 -0.8,0.4 -1.5,0.4 -0.8,0 -1.4,-0.2 -1.8,-0.6 -0.1,-0.1 -0.2,-0.3 -0.2,-0.6 0,-0.4 0.3,-0.8 0.8,-1.1 0.3,-0.2 0.5,-0.3 0.5,-0.4 0.2,-0.2 0.3,-0.4 0.3,-0.6 v -4.3 c 0,-0.1 -0.1,-0.2 -0.3,-0.4 -0.2,-0.1 -0.3,-0.1 -0.5,-0.2 -0.6,-0.3 -0.8,-0.6 -0.8,-1 0,-0.2 0.1,-0.4 0.3,-0.6 0.2,-0.2 0.4,-0.3 0.7,-0.3 0.3,0 0.6,0.1 0.8,0.4 0.1,0.1 0.2,0.3 0.4,0.7 0.1,0.3 0.3,0.5 0.5,0.6 0.3,0.1 0.6,0.2 0.8,0.4 0.3,0.1 0.5,0.3 0.6,0.6 0.1,0.2 0.1,0.4 0.1,0.7 v 5 z"
     id="path4718"
     inkscape:connector-curvature="0"
     style="fill:#ffffff" />
  <path
     d="m 15.3565,52 c 0,0.3 -0.1,0.5 -0.3,0.7 -0.2,0.2 -0.5,0.4 -0.7,0.4 -0.3,0 -0.5,-0.1 -0.7,-0.3 -0.3,-0.2 -0.4,-0.4 -0.4,-0.7 v -8 c 0,-0.3 0.1,-0.5 0.4,-0.7 0.2,-0.2 0.5,-0.3 0.8,-0.3 0.3,0 0.5,0.1 0.7,0.3 0.2,0.2 0.3,0.5 0.3,0.8 V 52 Z"
     id="path4720"
     inkscape:connector-curvature="0"
     style="fill:#ffffff" />
  <path
     d="m 24.7565,52 c 0,0.3 -0.1,0.5 -0.3,0.7 -0.2,0.2 -0.5,0.4 -0.7,0.4 -0.2,0 -0.5,-0.1 -0.8,-0.3 -0.3,-0.2 -0.4,-0.4 -0.4,-0.7 v -1.9 c 0,-0.1 -0.1,-0.2 -0.2,-0.5 -0.1,-0.2 -0.2,-0.2 -0.3,-0.2 h -2.7 c -0.1,0 -0.2,0.1 -0.3,0.2 -0.1,0.1 -0.1,0.2 -0.1,0.3 v 1.8 c 0,0 0,0 -0.1,0.1 l -0.1,0.2 c 0,0.1 -0.1,0.2 -0.2,0.4 -0.2,0.3 -0.5,0.5 -0.9,0.5 -0.2,0 -0.4,-0.1 -0.7,-0.3 -0.3,-0.2 -0.4,-0.4 -0.4,-0.6 V 50 c 0,-0.3 0.3,-0.6 0.8,-0.9 0.2,-0.1 0.3,-0.1 0.5,-0.2 0.2,-0.1 0.4,-0.2 0.4,-0.3 v -0.9 c 0,-0.1 -0.1,-0.2 -0.3,-0.4 -0.2,-0.1 -0.3,-0.1 -0.5,-0.2 -0.6,-0.2 -0.8,-0.5 -0.8,-0.8 v -2.2 c 0,-0.2 0.1,-0.4 0.3,-0.6 0.2,-0.2 0.5,-0.2 0.7,-0.2 0.3,0 0.6,0.1 0.8,0.4 0.2,0.2 0.3,0.5 0.3,0.9 V 45 l 0.2,1 v 0.4 c 0,0.1 0.1,0.2 0.2,0.3 0.1,0.1 0.2,0.2 0.3,0.2 h 2.6 c 0.1,0 0.3,-0.1 0.4,-0.3 0.1,-0.2 0.2,-0.3 0.2,-0.4 v -1.9 c 0,-0.3 0.1,-0.5 0.4,-0.7 0.3,-0.2 0.5,-0.3 0.8,-0.3 0.3,0 0.5,0.1 0.7,0.3 0.2,0.2 0.3,0.5 0.3,0.8 V 46 c 0,0.4 -0.2,0.7 -0.5,0.9 -0.2,0.1 -0.5,0.3 -0.9,0.5 -0.3,0.2 -0.5,0.5 -0.5,0.8 0,0.3 0.2,0.6 0.5,0.8 0.3,0.2 0.6,0.3 0.9,0.5 0.3,0.2 0.5,0.5 0.5,0.9 V 52 Z"
     id="path4722"
     inkscape:connector-curvature="0"
     style="fill:#ffffff" />
  <path
     d="m 40.5565,51.9 c 0,0.3 -0.1,0.6 -0.3,0.8 -0.3,0.2 -0.5,0.3 -0.8,0.3 -0.3,0 -0.6,-0.1 -0.8,-0.4 -0.2,-0.3 -0.3,-0.6 -0.3,-0.9 v -5.8 c 0,-0.1 -0.1,-0.2 -0.2,-0.3 -0.2,-0.1 -0.3,-0.2 -0.4,-0.2 h -1.9 c -0.3,0 -0.6,0.2 -0.8,0.5 -0.2,0.3 -0.3,0.6 -0.3,0.9 v 5.4 c 0,0 -0.1,0.1 -0.1,0.2 -0.2,0.2 -0.2,0.4 -0.2,0.4 -0.4,0.1 -0.5,0.2 -0.6,0.2 -0.3,0.1 -0.7,0.2 -1.4,0.2 -1.3,0 -1.9,-0.4 -1.9,-1.2 0,-0.2 0.1,-0.5 0.3,-0.7 0.1,-0.1 0.3,-0.3 0.6,-0.5 0.3,-0.2 0.5,-0.4 0.6,-0.5 0.2,-0.2 0.3,-0.4 0.3,-0.7 v -5.4 c 0,-0.3 0.1,-0.6 0.4,-0.9 0.2,-0.2 0.5,-0.4 0.8,-0.5 0.2,-0.1 0.4,-0.1 0.6,-0.1 h 2.7 c 0,0 0.1,0 0.4,0.1 0.2,0 0.4,0.1 0.5,0.1 0.2,0.1 0.3,0.1 0.4,0.3 0.1,0.2 0.3,0.4 0.4,0.6 0.1,0.3 0.2,0.6 0.3,0.6 0.1,0.1 0.2,0.3 0.5,0.4 0.2,0.1 0.4,0.2 0.6,0.2 0.5,0.2 0.7,0.6 0.7,1.1 v 5.8 z"
     id="path4724"
     inkscape:connector-curvature="0"
     style="fill:#ffffff" />
  <path
     d="m 44.0565,47.5 c 0,0.2 -0.1,0.4 -0.3,0.6 -0.2,0.2 -0.4,0.3 -0.7,0.3 -0.3,0 -0.6,-0.1 -0.8,-0.4 -0.2,-0.2 -0.4,-0.5 -0.4,-0.8 v -2.6 c 0,-0.3 0.1,-0.6 0.3,-0.9 0.2,-0.3 0.5,-0.4 0.8,-0.4 0.3,0 0.5,0.1 0.7,0.2 0.2,0.2 0.3,0.4 0.3,0.6 v 3.4 z"
     id="path4726"
     inkscape:connector-curvature="0"
     style="fill:#ffffff" />
  <path
     d="m 53.4565,52.1 c 0,0.4 -0.3,0.7 -0.8,1 -0.4,0.2 -0.8,0.2 -1.3,0.2 -0.8,0 -1.4,-0.2 -1.8,-0.6 -0.1,-0.1 -0.2,-0.3 -0.2,-0.6 0,-0.3 0.2,-0.6 0.5,-0.9 0.3,-0.2 0.6,-0.4 0.8,-0.6 0.3,-0.3 0.5,-0.6 0.5,-0.9 v -3.3 c 0,-0.7 -0.6,-1.1 -1.8,-1.1 -0.5,0 -0.8,0 -1,0.1 -0.3,0.1 -0.5,0.4 -0.7,0.7 -0.1,0.2 -0.1,0.3 -0.1,0.3 v 5.4 c 0,0.3 -0.1,0.5 -0.4,0.8 -0.2,0.3 -0.5,0.4 -0.8,0.4 -0.3,0 -0.5,-0.1 -0.7,-0.3 -0.2,-0.2 -0.3,-0.4 -0.3,-0.7 v -7.9 c 0,-0.3 0.1,-0.6 0.4,-0.8 0.2,-0.2 0.5,-0.3 0.8,-0.4 0.2,0 0.4,-0.1 0.6,-0.1 h 4.6 c 0.4,0 0.8,0.1 1.1,0.3 0.4,0.2 0.7,0.5 0.7,0.9 v 8.1 z"
     id="path4728"
     inkscape:connector-curvature="0"
     style="fill:#ffffff" />
  <path
     d="m 62.6565,44.1 c 0,0.3 -0.2,0.6 -0.5,0.9 -0.3,0.2 -0.6,0.4 -0.9,0.6 -0.3,0.3 -0.5,0.6 -0.5,1 v 5.5 c 0,0.3 -0.1,0.5 -0.4,0.7 -0.3,0.2 -0.5,0.3 -0.8,0.3 -0.3,0 -0.5,-0.1 -0.7,-0.4 -0.2,-0.3 -0.3,-0.5 -0.3,-0.8 v -5.3 c 0,-0.3 -0.1,-0.5 -0.3,-0.7 -0.2,-0.2 -0.4,-0.4 -0.6,-0.5 0,0 -0.1,0 -0.2,0 l -0.7,-0.1 c -0.1,0 -0.2,0 -0.2,0 -0.7,-0.1 -1.3,-0.3 -1.6,-0.6 -0.1,-0.1 -0.2,-0.3 -0.2,-0.5 0,-0.6 0.5,-1 1.4,-1.2 0.2,0 0.5,-0.1 0.6,-0.1 h 3.9 c 0.8,0 1.4,0.2 1.8,0.6 0.1,0.2 0.2,0.4 0.2,0.6"
     id="path4730"
     inkscape:connector-curvature="0"
     style="fill:#ffffff" />
  <path
     d="m 72.1565,49.3 v 0.1 l -0.1,0.2 c -0.1,0.3 -0.1,0.4 -0.1,0.5 -0.1,0.2 -0.1,0.4 -0.2,0.5 -0.1,0.1 -0.3,0.3 -0.6,0.4 -0.3,0.2 -0.6,0.3 -0.7,0.4 -0.1,0.1 -0.3,0.3 -0.4,0.4 -0.1,0.2 -0.2,0.4 -0.3,0.5 -0.2,0.4 -0.5,0.6 -0.9,0.6 -0.2,0 -0.5,-0.1 -0.7,-0.3 -0.2,-0.2 -0.3,-0.4 -0.3,-0.6 0,-0.4 0.3,-0.7 0.8,-1 0.2,-0.1 0.3,-0.1 0.5,-0.2 0.2,-0.1 0.4,-0.2 0.4,-0.3 v -4.4 c 0,-0.2 -0.1,-0.3 -0.3,-0.5 -0.2,-0.2 -0.4,-0.3 -0.5,-0.3 h -3.3 c -0.4,0 -0.7,-0.1 -1,-0.3 -0.3,-0.2 -0.5,-0.5 -0.5,-0.9 0,-0.4 0.2,-0.6 0.5,-0.9 0.3,-0.2 0.6,-0.3 1,-0.3 h 4.8 c 0.6,0 1.1,0.2 1.4,0.5 0.3,0.4 0.5,0.9 0.5,1.5 z m -6.1,5.3 c 0,0.4 -0.1,0.8 -0.3,1.1 -0.2,0.4 -0.5,0.5 -0.9,0.5 -0.6,0 -1,-0.4 -1.1,-1.1 0,-0.2 -0.1,-0.4 -0.1,-0.6 v -5 c 0,-0.4 0.1,-0.8 0.3,-1.1 0.2,-0.4 0.5,-0.5 0.9,-0.5 0.4,0 0.7,0.2 0.9,0.5 0.2,0.3 0.3,0.6 0.3,1 z"
     id="path4732"
     inkscape:connector-curvature="0"
     style="fill:#ffffff" />
  <path
     d="m 81.5565,52 c 0,0.3 -0.1,0.5 -0.3,0.7 -0.2,0.2 -0.5,0.4 -0.7,0.4 -0.2,0 -0.5,-0.1 -0.8,-0.3 -0.3,-0.2 -0.4,-0.4 -0.4,-0.7 v -1.9 c 0,-0.1 -0.1,-0.2 -0.2,-0.5 -0.1,-0.2 -0.2,-0.2 -0.3,-0.2 h -2.7 c -0.1,0 -0.2,0.1 -0.3,0.2 -0.1,0.1 -0.2,0.2 -0.2,0.3 v 1.8 c 0,0 0,0 -0.1,0.1 l -0.1,0.2 c 0,0.1 -0.1,0.2 -0.2,0.4 -0.2,0.3 -0.5,0.5 -0.9,0.5 -0.2,0 -0.4,-0.1 -0.7,-0.3 -0.3,-0.2 -0.4,-0.4 -0.4,-0.6 V 50 c 0,-0.3 0.3,-0.6 0.8,-0.9 0.2,-0.1 0.3,-0.1 0.5,-0.2 0.2,-0.1 0.4,-0.2 0.4,-0.3 v -0.9 c 0,-0.1 -0.1,-0.2 -0.3,-0.4 -0.2,-0.1 -0.3,-0.1 -0.5,-0.2 -0.6,-0.2 -0.8,-0.5 -0.8,-0.8 v -2.2 c 0,-0.2 0.1,-0.4 0.3,-0.6 0.2,-0.2 0.5,-0.2 0.7,-0.2 0.3,0 0.6,0.1 0.8,0.4 0.2,0.2 0.3,0.5 0.3,0.9 V 45 l 0.1,1.1 v 0.4 c 0,0.1 0.1,0.2 0.2,0.3 0.1,0.1 0.2,0.2 0.3,0.2 h 2.6 c 0.1,0 0.3,-0.1 0.4,-0.3 0.1,-0.2 0.2,-0.3 0.2,-0.4 v -1.9 c 0,-0.3 0.1,-0.5 0.4,-0.7 0.3,-0.2 0.5,-0.3 0.8,-0.3 0.3,0 0.5,0.1 0.7,0.3 0.2,0.2 0.3,0.5 0.3,0.8 v 1.6 c 0,0.4 -0.2,0.7 -0.5,0.9 -0.2,0.1 -0.5,0.3 -0.9,0.5 -0.3,0.2 -0.5,0.5 -0.5,0.8 0,0.3 0.2,0.6 0.5,0.8 0.3,0.2 0.6,0.3 0.9,0.5 0.3,0.2 0.5,0.5 0.5,0.9 V 52 Z"
     id="path4734"
     inkscape:connector-curvature="0"
     style="fill:#ffffff" />
  <path
     d="m 91.1565,51.4 c 0,0.4 -0.1,0.8 -0.3,1.1 -0.2,0.4 -0.5,0.6 -0.9,0.6 -0.3,0 -0.6,-0.1 -0.8,-0.4 -0.2,-0.2 -0.3,-0.5 -0.4,-0.8 0,-0.2 -0.1,-0.4 -0.1,-0.6 v -5.5 c 0,0 0,-0.1 -0.1,-0.2 -0.1,-0.1 -0.2,-0.1 -0.2,-0.1 h -3.6 c -0.4,0 -0.8,-0.1 -1.1,-0.3 -0.4,-0.2 -0.6,-0.5 -0.6,-0.9 0,-0.6 0.4,-0.9 1.2,-1.1 0.4,-0.1 1,-0.1 1.8,-0.1 h 0.5 c 0.6,0 1,0 1.4,0.1 0.3,0.1 0.6,0.3 0.8,0.5 0.1,0.2 0.3,0.6 0.5,1 0.1,0.2 0.4,0.4 0.9,0.6 0.4,0.2 0.7,0.5 0.8,0.8 0,0.2 0.1,0.4 0.2,0.7 v 0.1 z m -6,-0.6 v 0.3 0.3 0.2 c -0.1,1 -0.5,1.4 -1.2,1.4 -0.5,0 -0.9,-0.3 -1.1,-1 -0.1,-0.3 -0.1,-0.8 -0.1,-1.6 0,-0.7 0,-1.2 0.1,-1.6 0.2,-0.7 0.5,-1 1.1,-1 0.5,0 0.9,0.3 1.1,1 0.1,0.3 0.1,0.9 0.1,1.6 z"
     id="path4736"
     inkscape:connector-curvature="0"
     style="fill:#ffffff" />
  <path
     d="m 105.3565,51.4 c 0,0.4 -0.1,0.8 -0.3,1.1 -0.2,0.4 -0.5,0.6 -0.9,0.6 -0.3,0 -0.6,-0.1 -0.8,-0.4 -0.2,-0.2 -0.3,-0.5 -0.4,-0.8 0,-0.2 -0.1,-0.4 -0.1,-0.6 v -5.5 c 0,0 0,-0.1 -0.1,-0.2 -0.1,-0.1 -0.2,-0.1 -0.2,-0.1 h -3.6 c -0.4,0 -0.8,-0.1 -1.1,-0.3 -0.4,-0.2 -0.6,-0.5 -0.6,-0.9 0,-0.6 0.4,-0.9 1.2,-1.1 0.4,-0.1 1,-0.1 1.8,-0.1 h 0.5 c 0.6,0 1,0 1.4,0.1 0.3,0.1 0.6,0.3 0.8,0.5 0.1,0.2 0.3,0.6 0.5,1 0.1,0.2 0.4,0.4 0.9,0.6 0.4,0.2 0.7,0.5 0.8,0.8 0,0.2 0.1,0.4 0.2,0.7 v 0.1 z m -6,-0.6 v 0.3 0.3 0.2 c -0.1,1 -0.5,1.4 -1.2,1.4 -0.5,0 -0.9,-0.3 -1.1,-1 -0.1,-0.2 -0.1,-0.7 -0.1,-1.4 0,-0.7 0,-1.2 0.1,-1.6 0.2,-0.7 0.5,-1 1.1,-1 0.5,0 0.9,0.3 1.1,1 0.1,0.3 0.1,0.9 0.1,1.6 z"
     id="path4738"
     inkscape:connector-curvature="0"
     style="fill:#ffffff" />
  <path
     d="m 108.7565,47.5 c 0,0.2 -0.1,0.4 -0.3,0.6 -0.2,0.2 -0.4,0.3 -0.7,0.3 -0.3,0 -0.6,-0.1 -0.8,-0.4 -0.2,-0.2 -0.4,-0.5 -0.4,-0.8 v -2.6 c 0,-0.3 0.1,-0.6 0.3,-0.9 0.2,-0.3 0.5,-0.4 0.8,-0.4 0.3,0 0.5,0.1 0.7,0.2 0.2,0.2 0.3,0.4 0.3,0.6 v 3.4 z"
     id="path4740"
     inkscape:connector-curvature="0"
     style="fill:#ffffff" />
  <path
     d="m 116.0565,51.7 c 0,0.3 -0.1,0.6 -0.3,0.9 -0.2,0.3 -0.5,0.4 -0.8,0.4 -0.3,0 -0.6,-0.1 -0.8,-0.4 -0.2,-0.3 -0.3,-0.6 -0.3,-0.9 V 46 c 0,-0.2 -0.1,-0.3 -0.2,-0.4 -0.1,-0.1 -0.3,-0.2 -0.4,-0.2 h -0.5 c -0.9,0 -1.6,-0.1 -2,-0.3 -0.4,-0.2 -0.6,-0.5 -0.6,-1 0,-0.8 0.6,-1.2 1.9,-1.2 0.7,0 1.2,0.1 1.5,0.3 0.2,0.1 0.4,0.5 0.6,1 0.1,0.3 0.3,0.5 0.6,0.6 0.2,0.1 0.5,0.2 0.7,0.3 0.2,0.1 0.4,0.3 0.5,0.5 0.1,0.2 0.2,0.4 0.2,0.6 v 0.1 5.4 z"
     id="path4742"
     inkscape:connector-curvature="0"
     style="fill:#ffffff" />
  <path
     d="m 125.7565,49.3 v 0.1 l -0.1,0.2 c -0.1,0.3 -0.1,0.4 -0.1,0.5 -0.1,0.2 -0.1,0.4 -0.2,0.5 -0.1,0.1 -0.3,0.3 -0.6,0.4 -0.3,0.2 -0.6,0.3 -0.7,0.4 -0.1,0.1 -0.3,0.3 -0.4,0.4 -0.1,0.2 -0.2,0.4 -0.3,0.5 -0.2,0.4 -0.5,0.6 -0.9,0.6 -0.2,0 -0.5,-0.1 -0.7,-0.3 -0.2,-0.2 -0.3,-0.4 -0.3,-0.6 0,-0.4 0.3,-0.7 0.8,-1 0.2,-0.1 0.3,-0.1 0.5,-0.2 0.2,-0.1 0.4,-0.2 0.4,-0.3 v -4.4 c 0,-0.2 -0.1,-0.3 -0.3,-0.5 -0.2,-0.2 -0.4,-0.3 -0.5,-0.3 h -3.3 c -0.4,0 -0.7,-0.1 -1,-0.3 -0.3,-0.2 -0.5,-0.5 -0.5,-0.9 0,-0.4 0.2,-0.6 0.5,-0.9 0.3,-0.2 0.6,-0.3 1,-0.3 h 4.8 c 0.6,0 1.1,0.2 1.4,0.5 0.3,0.4 0.5,0.9 0.5,1.5 z m -6,5.3 c 0,0.4 -0.1,0.8 -0.3,1.1 -0.2,0.4 -0.5,0.5 -0.9,0.5 -0.6,0 -1,-0.4 -1.1,-1.1 0,-0.2 -0.1,-0.4 -0.1,-0.6 v -5 c 0,-0.4 0.1,-0.8 0.3,-1.1 0.2,-0.4 0.5,-0.5 0.9,-0.5 0.4,0 0.7,0.2 0.9,0.5 0.2,0.3 0.3,0.6 0.3,1 z"
     id="path4744"
     inkscape:connector-curvature="0"
     style="fill:#ffffff" />
  <path
     d="m 135.4565,51.4 c 0,0.4 -0.1,0.8 -0.3,1.1 -0.2,0.4 -0.5,0.6 -0.9,0.6 -0.3,0 -0.6,-0.1 -0.8,-0.4 -0.2,-0.2 -0.3,-0.5 -0.4,-0.8 0,-0.2 -0.1,-0.4 -0.1,-0.6 v -5.5 c 0,0 0,-0.1 -0.1,-0.2 -0.1,-0.1 -0.2,-0.1 -0.2,-0.1 h -3.6 c -0.4,0 -0.8,-0.1 -1.1,-0.3 -0.4,-0.2 -0.6,-0.5 -0.6,-0.9 0,-0.6 0.4,-0.9 1.2,-1.1 0.4,-0.1 1,-0.1 1.8,-0.1 h 0.5 c 0.6,0 1,0 1.4,0.1 0.3,0.1 0.6,0.3 0.8,0.5 0.1,0.2 0.3,0.6 0.5,1 0.1,0.2 0.4,0.4 0.9,0.6 0.4,0.2 0.7,0.5 0.8,0.8 0,0.2 0.1,0.4 0.2,0.7 v 0.1 z m -6,-0.6 v 0.3 0.3 0.2 c -0.1,1 -0.5,1.4 -1.2,1.4 -0.5,0 -0.9,-0.3 -1.1,-1 -0.1,-0.3 -0.1,-0.8 -0.1,-1.6 0,-0.7 0,-1.2 0.1,-1.6 0.2,-0.7 0.5,-1 1.1,-1 0.5,0 0.9,0.3 1.1,1 0.1,0.3 0.1,0.9 0.1,1.6 z"
     id="path4746"
     inkscape:connector-curvature="0"
     style="fill:#ffffff" />
  <g
     aria-label="מינהל הציונות הדתית"
     style="font-style:normal;font-weight:normal;font-size:9.33333302px;line-height:125%;font-family:Sans;letter-spacing:0px;word-spacing:0px;fill:#627c8c;fill-opacity:1;stroke:none;stroke-width:1px;stroke-linecap:butt;stroke-linejoin:miter;stroke-opacity:1"
     id="text5300">
    <path
       d="m 130.32013,74.048543 h 1.5677 q 0.0592,0.03646 0.19141,0.483073 0.13672,0.442058 0.13672,0.638021 0.14128,-0.496745 0.61068,-0.838541 0.4694,-0.346355 0.97526,-0.346355 2.02343,0 2.02343,2.424479 v 2.74349 h -2.625 v -1.080078 h 1.11654 V 76.40922 q 0,-0.751953 -0.12305,-1.034505 -0.11849,-0.287109 -0.49674,-0.287109 -0.14128,0 -0.25977,0.05925 -0.11849,0.05469 -0.20963,0.136718 -0.0866,0.08203 -0.16862,0.23698 -0.0775,0.15039 -0.13216,0.282552 -0.0501,0.132161 -0.10482,0.350911 -0.0547,0.214193 -0.0866,0.364583 -0.0319,0.150391 -0.082,0.401042 l -0.44206,2.233073 h -1.5039 l 0.41927,-2.210286 q 0.0638,-0.341797 0.0729,-0.610677 0,-0.510417 -0.16406,-0.970704 -0.16406,-0.464843 -0.71549,-1.3125 z"
       style="font-style:normal;font-variant:normal;font-weight:bold;font-stretch:normal;font-family:Roboto;-inkscape-font-specification:'Roboto Bold';letter-spacing:1.65999997px;word-spacing:5px;fill:#627c8c;fill-opacity:1"
       id="path5325" />
    <path
       d="m 127.63474,74.048543 v 2.957683 l -1.50846,0.615234 v -3.572917 z"
       style="font-style:normal;font-variant:normal;font-weight:bold;font-stretch:normal;font-family:Roboto;-inkscape-font-specification:'Roboto Bold';letter-spacing:1.65999997px;word-spacing:5px;fill:#627c8c;fill-opacity:1"
       id="path5327" />
    <path
       d="m 121.49037,78.068075 v -2.032552 q 0,-0.60612 -0.18685,-0.751954 -0.18685,-0.15039 -0.48308,-0.15039 h -0.69726 v -1.084636 h 0.69726 q 1.3125,0 1.74545,0.519532 0.43294,0.519531 0.43294,1.367187 v 3.217448 h -2.98047 v -1.084635 z"
       style="font-style:normal;font-variant:normal;font-weight:bold;font-stretch:normal;font-family:Roboto;-inkscape-font-specification:'Roboto Bold';letter-spacing:1.65999997px;word-spacing:5px;fill:#627c8c;fill-opacity:1"
       id="path5329" />
    <path
       d="m 113.9788,75.862345 v 3.290365 h -1.5039 v -2.670573 z m 3.1263,0.697266 v 2.593099 h -1.5039 v -2.748047 q 0,-0.742838 -0.19141,-1.007161 -0.18685,-0.264323 -0.73372,-0.264323 h -2.28776 v -1.084636 h 2.27864 q 0.68815,0 1.14844,0.136719 0.46029,0.136719 0.7474,0.446615 0.29166,0.305338 0.41471,0.770182 0.1276,0.464844 0.1276,1.157552 z"
       style="font-style:normal;font-variant:normal;font-weight:bold;font-stretch:normal;font-family:Roboto;-inkscape-font-specification:'Roboto Bold';letter-spacing:1.65999997px;word-spacing:5px;fill:#627c8c;fill-opacity:1"
       id="path5331" />
    <path
       d="m 105.74264,79.15271 1.66341,-4.019531 h -2.77539 v -2.620443 h 1.50846 v 1.535807 l 3.00781,0.0046 v 0.729166 l -1.8457,4.370443 z"
       style="font-style:normal;font-variant:normal;font-weight:bold;font-stretch:normal;font-family:Roboto;-inkscape-font-specification:'Roboto Bold';letter-spacing:1.65999997px;word-spacing:5px;fill:#627c8c;fill-opacity:1"
       id="path5333" />
    <path
       d="m 88.686307,75.862345 v 3.290365 h -1.503906 v -2.670573 z m 3.126302,0.697266 v 2.593099 h -1.503906 v -2.748047 q 0,-0.742838 -0.191406,-1.007161 -0.186849,-0.264323 -0.733724,-0.264323 h -2.287761 v -1.084636 h 2.278646 q 0.688151,0 1.148438,0.136719 0.460286,0.136719 0.747395,0.446615 0.291667,0.305338 0.414714,0.770182 0.127604,0.464844 0.127604,1.157552 z"
       style="font-style:normal;font-variant:normal;font-weight:bold;font-stretch:normal;font-family:Roboto;-inkscape-font-specification:'Roboto Bold';letter-spacing:1.65999997px;word-spacing:5px;fill:#627c8c;fill-opacity:1"
       id="path5335" />
    <path
       d="m 81.552999,78.072632 -2.748047,-4.024089 h 1.695312 l 1.421875,2.105469 q 0.341797,-0.113932 0.341797,-0.75651 v -1.348959 h 1.499349 v 1.007162 q 0,0.70638 -0.277995,1.171224 -0.246094,0.414713 -0.519531,0.551432 -0.31901,0.159505 -0.442057,0.154948 l 1.09375,1.636068 v 0.583333 h -4.616537 v -1.080078 z"
       style="font-style:normal;font-variant:normal;font-weight:bold;font-stretch:normal;font-family:Roboto;-inkscape-font-specification:'Roboto Bold';letter-spacing:1.65999997px;word-spacing:5px;fill:#627c8c;fill-opacity:1"
       id="path5337" />
    <path
       d="m 76.215263,74.048543 v 2.957683 L 74.7068,77.62146 v -3.572917 z"
       style="font-style:normal;font-variant:normal;font-weight:bold;font-stretch:normal;font-family:Roboto;-inkscape-font-specification:'Roboto Bold';letter-spacing:1.65999997px;word-spacing:5px;fill:#627c8c;fill-opacity:1"
       id="path5339" />
    <path
       d="M 71.574788,74.048543 V 79.15271 H 70.066325 V 74.048543 Z"
       style="font-style:normal;font-variant:normal;font-weight:bold;font-stretch:normal;font-family:Roboto;-inkscape-font-specification:'Roboto Bold';letter-spacing:1.65999997px;word-spacing:5px;fill:#627c8c;fill-opacity:1"
       id="path5341" />
    <path
       d="m 65.202555,78.068075 v -2.032552 q 0,-0.60612 -0.186849,-0.751954 -0.186849,-0.15039 -0.483073,-0.15039 h -0.697265 v -1.084636 h 0.697265 q 1.3125,0 1.745443,0.519532 0.432943,0.519531 0.432943,1.367187 V 79.15271 H 63.73055 v -1.084635 z"
       style="font-style:normal;font-variant:normal;font-weight:bold;font-stretch:normal;font-family:Roboto;-inkscape-font-specification:'Roboto Bold';letter-spacing:1.65999997px;word-spacing:5px;fill:#627c8c;fill-opacity:1"
       id="path5343" />
    <path
       d="M 60.817296,74.048543 V 79.15271 H 59.308833 V 74.048543 Z"
       style="font-style:normal;font-variant:normal;font-weight:bold;font-stretch:normal;font-family:Roboto;-inkscape-font-specification:'Roboto Bold';letter-spacing:1.65999997px;word-spacing:5px;fill:#627c8c;fill-opacity:1"
       id="path5345" />
    <path
       d="m 55.948964,76.40922 v 2.74349 h -1.508463 v -2.748047 q 0,-0.802083 -0.227865,-1.04362 -0.209635,-0.227864 -0.642578,-0.227864 H 52.92748 v 2.105469 q 0,1.152994 -0.405599,1.576822 -0.360026,0.378256 -1.04362,0.378256 -0.683594,0 -0.966146,-0.0957 v -1.02539 q 0.446615,0.05925 0.501302,0.05925 0.227865,0 0.314453,-0.177735 0.09115,-0.182291 0.09115,-0.715494 v -2.105469 h -0.888672 v -1.084636 h 3.039714 q 1.604167,0 2.082682,0.884115 0.296224,0.546875 0.296224,1.476562 z"
       style="font-style:normal;font-variant:normal;font-weight:bold;font-stretch:normal;font-family:Roboto;-inkscape-font-specification:'Roboto Bold';letter-spacing:1.65999997px;word-spacing:5px;fill:#627c8c;fill-opacity:1"
       id="path5347" />
    <path
       d="m 34.877662,75.862345 v 3.290365 h -1.503906 v -2.670573 z m 3.126302,0.697266 v 2.593099 h -1.503906 v -2.748047 q 0,-0.742838 -0.191407,-1.007161 -0.186849,-0.264323 -0.733724,-0.264323 h -2.28776 v -1.084636 h 2.278646 q 0.688151,0 1.148437,0.136719 0.460287,0.136719 0.747396,0.446615 0.291667,0.305338 0.414714,0.770182 0.127604,0.464844 0.127604,1.157552 z"
       style="font-style:normal;font-variant:normal;font-weight:bold;font-stretch:normal;font-family:Roboto;-inkscape-font-specification:'Roboto Bold';letter-spacing:1.65999997px;word-spacing:5px;fill:#627c8c;fill-opacity:1"
       id="path5349" />
    <path
       d="M 30.378468,75.133179 H 29.56727 v 4.019531 h -1.508464 v -4.019531 h -2.365234 v -1.084636 h 4.684896 z"
       style="font-style:normal;font-variant:normal;font-weight:bold;font-stretch:normal;font-family:Roboto;-inkscape-font-specification:'Roboto Bold';letter-spacing:1.65999997px;word-spacing:5px;fill:#627c8c;fill-opacity:1"
       id="path5351" />
    <path
       d="m 22.780317,76.40922 v 2.74349 h -1.508463 v -2.748047 q 0,-0.802083 -0.227865,-1.04362 -0.209635,-0.227864 -0.642578,-0.227864 h -0.642578 v 2.105469 q 0,1.152994 -0.405599,1.576822 -0.360026,0.378256 -1.04362,0.378256 -0.683593,0 -0.966145,-0.0957 v -1.02539 q 0.446614,0.05925 0.501302,0.05925 0.227864,0 0.314453,-0.177735 0.09115,-0.182291 0.09115,-0.715494 v -2.105469 h -0.888672 v -1.084636 h 3.039713 q 1.604167,0 2.082682,0.884115 0.296224,0.546875 0.296224,1.476562 z"
       style="font-style:normal;font-variant:normal;font-weight:bold;font-stretch:normal;font-family:Roboto;-inkscape-font-specification:'Roboto Bold';letter-spacing:1.65999997px;word-spacing:5px;fill:#627c8c;fill-opacity:1"
       id="path5353" />
    <path
       d="m 14.967973,74.048543 v 2.957683 l -1.508464,0.615234 v -3.572917 z"
       style="font-style:normal;font-variant:normal;font-weight:bold;font-stretch:normal;font-family:Roboto;-inkscape-font-specification:'Roboto Bold';letter-spacing:1.65999997px;word-spacing:5px;fill:#627c8c;fill-opacity:1"
       id="path5355" />
    <path
       d="m 10.327505,76.40922 v 2.74349 H 8.819041 v -2.748047 q 0,-0.802083 -0.2278646,-1.04362 Q 8.381541,75.133179 7.9485983,75.133179 H 7.3060202 v 2.105469 q 0,1.152994 -0.4055989,1.576822 -0.360026,0.378256 -1.0436198,0.378256 -0.6835937,0 -0.9661458,-0.0957 v -1.02539 q 0.4466146,0.05925 0.5013021,0.05925 0.2278646,0 0.3144531,-0.177735 0.091146,-0.182291 0.091146,-0.715494 V 75.133179 H 4.9088849 v -1.084636 h 3.0397134 q 1.6041666,0 2.0826827,0.884115 0.296224,0.546875 0.296224,1.476562 z"
       style="font-style:normal;font-variant:normal;font-weight:bold;font-stretch:normal;font-family:Roboto;-inkscape-font-specification:'Roboto Bold';letter-spacing:1.65999997px;word-spacing:5px;fill:#627c8c;fill-opacity:1"
       id="path5357" />
  </g>
  <text
     xml:space="preserve"
     style="font-style:normal;font-weight:normal;font-size:9.33333302px;line-height:125%;font-family:Sans;letter-spacing:0px;word-spacing:0px;fill:#000000;fill-opacity:1;stroke:none;stroke-width:1px;stroke-linecap:butt;stroke-linejoin:miter;stroke-opacity:1"
     x="73.175186"
     y="-75.729897"
     id="text5304"><tspan
       sodipodi:role="line"
       id="tspan5302"
       x="73.175186"
       y="-67.472084"></tspan></text>
</svg>
